<svg width="30" height="27" viewBox="0 0 30 27" fill="none" xmlns="http://www.w3.org/2000/svg">
<path d="M25.6098 3.9375C22.7875 1.40625 19.0244 0 15.0523 0C6.79442 0 0.104528 6 0.104528 13.4062C0.104528 15.75 0.836237 18.0937 2.09059 20.0625L0 27L7.94425 25.125C10.1394 26.1562 12.5436 26.7188 15.0523 26.7188C23.3101 26.7188 30 20.7188 30 13.3125C29.8955 9.84375 28.4321 6.46875 25.6098 3.9375ZM22.2648 18.1875C21.9512 18.9375 20.4878 19.6875 19.7561 19.7812C19.1289 19.875 18.2927 19.875 17.4564 19.6875C16.9338 19.5 16.2021 19.3125 15.3659 18.9375C11.6028 17.5312 9.19861 14.1562 8.98955 13.875C8.78049 13.6875 7.42161 12.0937 7.42161 10.4062C7.42161 8.71875 8.36237 7.96875 8.67596 7.59375C8.98955 7.21875 9.40767 7.21875 9.72125 7.21875C9.93031 7.21875 10.2439 7.21875 10.453 7.21875C10.662 7.21875 10.9756 7.125 11.2892 7.78125C11.6028 8.4375 12.3345 10.125 12.439 10.2188C12.5436 10.4062 12.5436 10.5938 12.439 10.7812C12.3345 10.9688 12.23 11.1562 12.0209 11.3437C11.8118 11.5312 11.6028 11.8125 11.4983 11.9062C11.2892 12.0937 11.0801 12.2812 11.2892 12.5625C11.4983 12.9375 12.23 13.9687 13.3798 14.9062C14.8432 16.0312 15.993 16.4062 16.4112 16.5938C16.8293 16.7812 17.0383 16.6875 17.2474 16.5C17.4564 16.3125 18.1882 15.5625 18.3972 15.1875C18.6063 14.8125 18.9199 14.9062 19.2334 15C19.547 15.0938 21.4286 15.9375 21.7422 16.125C22.1603 16.3125 22.3693 16.4062 22.4739 16.5C22.5784 16.7812 22.5784 17.4375 22.2648 18.1875Z" fill="#9A9A9A"/>
</svg>
