<svg width="35" height="35" viewBox="0 0 35 35" fill="none" xmlns="http://www.w3.org/2000/svg">
<path d="M29.878 5.00681C26.5854 1.78815 22.1951 0 17.561 0C7.92683 0 0.121949 7.62943 0.121949 17.047C0.121949 20.0272 0.97561 23.0075 2.43902 25.5109L0 34.3324L9.26829 31.9482C11.8293 33.2595 14.6341 33.9748 17.561 33.9748C27.1951 33.9748 35 26.3454 35 16.9278C34.878 12.517 33.1707 8.22548 29.878 5.00681ZM25.9756 23.1267C25.6098 24.0804 23.9024 25.0341 23.0488 25.1533C22.3171 25.2725 21.3415 25.2725 20.3659 25.0341C19.7561 24.7956 18.9024 24.5572 17.9268 24.0804C13.5366 22.2922 10.7317 18.0007 10.4878 17.6431C10.2439 17.4046 8.65854 15.3781 8.65854 13.2323C8.65854 11.0865 9.7561 10.1328 10.1219 9.65599C10.4878 9.17915 10.9756 9.17915 11.3415 9.17915C11.5854 9.17915 11.9512 9.17915 12.1951 9.17915C12.439 9.17915 12.8049 9.05995 13.1707 9.89441C13.5366 10.7289 14.3902 12.8747 14.5122 12.9939C14.6341 13.2323 14.6341 13.4707 14.5122 13.7091C14.3902 13.9475 14.2683 14.186 14.0244 14.4244C13.7805 14.6628 13.5366 15.0204 13.4146 15.1396C13.1707 15.3781 12.9268 15.6165 13.1707 15.9741C13.4146 16.451 14.2683 17.7623 15.6098 18.9544C17.3171 20.3849 18.6585 20.8617 19.1463 21.1001C19.6341 21.3386 19.878 21.2193 20.1219 20.9809C20.3658 20.7425 21.2195 19.7888 21.4634 19.312C21.7073 18.8352 22.0732 18.9544 22.439 19.0736C22.8049 19.1928 25 20.2657 25.3659 20.5041C25.8537 20.7425 26.0976 20.8617 26.2195 20.9809C26.3415 21.3386 26.3415 22.173 25.9756 23.1267Z" fill="white"/>
</svg>
