<svg width="35" height="22" viewBox="0 0 35 22" fill="none" xmlns="http://www.w3.org/2000/svg">
<path d="M19.0631 21.875C7.10494 21.875 0.284197 13.6637 0 0H5.99001C6.18676 10.0288 10.6027 14.2768 14.1006 15.1527V0H19.7408V8.64927C23.1949 8.27703 26.8239 4.33559 28.0481 0H33.6883C33.227 2.24856 32.3074 4.37758 30.9871 6.25391C29.6668 8.13023 27.9741 9.71349 26.015 10.9047C28.2018 11.9931 30.1334 13.5336 31.6822 15.4246C33.231 17.3156 34.3618 19.5141 35 21.875H28.7914C28.2185 19.8244 27.054 17.9888 25.444 16.5982C23.834 15.2076 21.8501 14.3239 19.7408 14.0578V21.875H19.0631Z" fill="white"/>
</svg>
