<svg width="31" height="18" viewBox="0 0 31 18" fill="none" xmlns="http://www.w3.org/2000/svg">
<path d="M16.8844 18C6.29294 18 0.251718 11.2432 0 0H5.30543C5.4797 8.25225 9.39101 11.7477 12.4891 12.4685V0H17.4847V7.11712C20.544 6.81081 23.7583 3.56757 24.8426 0H29.8382C29.4296 1.85024 28.6151 3.60213 27.4457 5.14607C26.2763 6.69002 24.7771 7.99282 23.0419 8.97297C24.9788 9.86857 26.6896 11.1362 28.0614 12.6922C29.4331 14.2483 30.4347 16.0573 31 18H25.5009C24.9935 16.3126 23.9621 14.8022 22.5361 13.6579C21.1101 12.5137 19.3529 11.7865 17.4847 11.5676V18H16.8844Z" fill="#9A9A9A"/>
</svg>
